<mxfile host="app.diagrams.net" modified="2022-01-27T09:20:43.179Z" agent="5.0 (Windows NT 10.0; Win64; x64) AppleWebKit/537.36 (KHTML, like Gecko) Chrome/97.0.4692.99 Safari/537.36" etag="CPUa_fUOM3d9ZM99cM4c" version="16.4.5" type="github">
  <diagram id="6_-bRJjwJDpoPKHW9-ax" name="Page-1">
    <mxGraphModel dx="1422" dy="786" grid="1" gridSize="10" guides="1" tooltips="1" connect="1" arrows="1" fold="1" page="1" pageScale="1" pageWidth="827" pageHeight="1169" math="0" shadow="0">
      <root>
        <mxCell id="0" />
        <mxCell id="1" parent="0" />
        <mxCell id="WJ67TAGHBgBwQWN77VL1-5" style="edgeStyle=orthogonalEdgeStyle;rounded=0;orthogonalLoop=1;jettySize=auto;html=1;exitX=0.5;exitY=1;exitDx=0;exitDy=0;entryX=0.5;entryY=0;entryDx=0;entryDy=0;" edge="1" parent="1" source="WJ67TAGHBgBwQWN77VL1-1" target="WJ67TAGHBgBwQWN77VL1-4">
          <mxGeometry relative="1" as="geometry" />
        </mxCell>
        <mxCell id="WJ67TAGHBgBwQWN77VL1-6" style="edgeStyle=orthogonalEdgeStyle;rounded=0;orthogonalLoop=1;jettySize=auto;html=1;exitX=0.5;exitY=1;exitDx=0;exitDy=0;entryX=0.5;entryY=0;entryDx=0;entryDy=0;" edge="1" parent="1" source="WJ67TAGHBgBwQWN77VL1-1" target="WJ67TAGHBgBwQWN77VL1-2">
          <mxGeometry relative="1" as="geometry" />
        </mxCell>
        <mxCell id="WJ67TAGHBgBwQWN77VL1-8" style="edgeStyle=orthogonalEdgeStyle;rounded=0;orthogonalLoop=1;jettySize=auto;html=1;exitX=0.5;exitY=1;exitDx=0;exitDy=0;entryX=0.5;entryY=0;entryDx=0;entryDy=0;" edge="1" parent="1" source="WJ67TAGHBgBwQWN77VL1-1" target="WJ67TAGHBgBwQWN77VL1-7">
          <mxGeometry relative="1" as="geometry" />
        </mxCell>
        <mxCell id="WJ67TAGHBgBwQWN77VL1-10" style="edgeStyle=orthogonalEdgeStyle;rounded=0;orthogonalLoop=1;jettySize=auto;html=1;exitX=0.5;exitY=1;exitDx=0;exitDy=0;entryX=0.5;entryY=0;entryDx=0;entryDy=0;" edge="1" parent="1" source="WJ67TAGHBgBwQWN77VL1-1" target="WJ67TAGHBgBwQWN77VL1-9">
          <mxGeometry relative="1" as="geometry" />
        </mxCell>
        <mxCell id="WJ67TAGHBgBwQWN77VL1-16" style="edgeStyle=orthogonalEdgeStyle;rounded=0;orthogonalLoop=1;jettySize=auto;html=1;exitX=0.5;exitY=1;exitDx=0;exitDy=0;entryX=0.5;entryY=0;entryDx=0;entryDy=0;" edge="1" parent="1" source="WJ67TAGHBgBwQWN77VL1-1" target="WJ67TAGHBgBwQWN77VL1-15">
          <mxGeometry relative="1" as="geometry" />
        </mxCell>
        <mxCell id="WJ67TAGHBgBwQWN77VL1-1" value="backend" style="rounded=0;whiteSpace=wrap;html=1;" vertex="1" parent="1">
          <mxGeometry x="470" y="80" width="120" height="60" as="geometry" />
        </mxCell>
        <mxCell id="WJ67TAGHBgBwQWN77VL1-12" style="edgeStyle=orthogonalEdgeStyle;rounded=0;orthogonalLoop=1;jettySize=auto;html=1;exitX=0.5;exitY=1;exitDx=0;exitDy=0;entryX=0.5;entryY=0;entryDx=0;entryDy=0;" edge="1" parent="1" source="WJ67TAGHBgBwQWN77VL1-2" target="WJ67TAGHBgBwQWN77VL1-11">
          <mxGeometry relative="1" as="geometry" />
        </mxCell>
        <mxCell id="WJ67TAGHBgBwQWN77VL1-14" style="edgeStyle=orthogonalEdgeStyle;rounded=0;orthogonalLoop=1;jettySize=auto;html=1;exitX=0.5;exitY=1;exitDx=0;exitDy=0;entryX=0.5;entryY=0;entryDx=0;entryDy=0;" edge="1" parent="1" source="WJ67TAGHBgBwQWN77VL1-2" target="WJ67TAGHBgBwQWN77VL1-13">
          <mxGeometry relative="1" as="geometry" />
        </mxCell>
        <mxCell id="WJ67TAGHBgBwQWN77VL1-2" value="&amp;lt;tablename 1&amp;gt;" style="rounded=0;whiteSpace=wrap;html=1;" vertex="1" parent="1">
          <mxGeometry x="250" y="220" width="120" height="60" as="geometry" />
        </mxCell>
        <mxCell id="WJ67TAGHBgBwQWN77VL1-4" value="&amp;lt;tablename 2&amp;gt;" style="rounded=0;whiteSpace=wrap;html=1;" vertex="1" parent="1">
          <mxGeometry x="390" y="220" width="120" height="60" as="geometry" />
        </mxCell>
        <mxCell id="WJ67TAGHBgBwQWN77VL1-7" value="&amp;lt;tablename 3&amp;gt;" style="rounded=0;whiteSpace=wrap;html=1;" vertex="1" parent="1">
          <mxGeometry x="530" y="220" width="120" height="60" as="geometry" />
        </mxCell>
        <mxCell id="WJ67TAGHBgBwQWN77VL1-9" value="&amp;lt;tablename 2&amp;gt;" style="rounded=0;whiteSpace=wrap;html=1;" vertex="1" parent="1">
          <mxGeometry x="680" y="220" width="120" height="60" as="geometry" />
        </mxCell>
        <mxCell id="WJ67TAGHBgBwQWN77VL1-11" value="alchemy.py" style="rounded=0;whiteSpace=wrap;html=1;" vertex="1" parent="1">
          <mxGeometry x="330" y="360" width="120" height="60" as="geometry" />
        </mxCell>
        <mxCell id="WJ67TAGHBgBwQWN77VL1-13" value="manager.py" style="rounded=0;whiteSpace=wrap;html=1;" vertex="1" parent="1">
          <mxGeometry x="170" y="360" width="120" height="60" as="geometry" />
        </mxCell>
        <mxCell id="WJ67TAGHBgBwQWN77VL1-15" value="base_manager.py" style="rounded=0;whiteSpace=wrap;html=1;" vertex="1" parent="1">
          <mxGeometry x="110" y="220" width="120" height="60" as="geometry" />
        </mxCell>
      </root>
    </mxGraphModel>
  </diagram>
</mxfile>
